<?xml version="1.0" encoding="UTF-8"?>
<svg width="100" height="100" viewBox="0 0 100 100" xmlns="http://www.w3.org/2000/svg">
  <linearGradient id="orangeGradient" x1="0%" y1="0%" x2="100%" y2="100%">
    <stop offset="0%" stop-color="#FF6A00"/>
    <stop offset="100%" stop-color="#FF3D00"/>
  </linearGradient>
  <path fill="url(#orangeGradient)" d="M70,10H30c-5.5,0-10,4.5-10,10v60c0,5.5,4.5,10,10,10h40c5.5,0,10-4.5,10-10V20C80,14.5,75.5,10,70,10z M70,80H30V20h40V80z"/>
  <path fill="url(#orangeGradient)" d="M40,30h20v5H40V30z"/>
  <path fill="url(#orangeGradient)" d="M40,45h20v5H40V45z"/>
  <path fill="url(#orangeGradient)" d="M40,60h20v5H40V60z"/>
  <path fill="url(#orangeGradient)" d="M55,80l15,-10V60l-15,10V80z"/>
</svg>